<svg xmlns="http://www.w3.org/2000/svg" version="1.1" xmlns:xlink="http://www.w3.org/1999/xlink" xmlns:svgjs="http://svgjs.dev/svgjs" width="2000" height="671" viewBox="0 0 2000 671"><g transform="matrix(1,0,0,1,-1.2121212121212466,0.41462775937372953)"><svg viewBox="0 0 396 133" data-background-color="#ffffff" preserveAspectRatio="xMidYMid meet" height="671" width="2000" xmlns="http://www.w3.org/2000/svg" xmlns:xlink="http://www.w3.org/1999/xlink"><g id="tight-bounds" transform="matrix(1,0,0,1,0.2400000000000091,-0.08218404172384908)"><svg viewBox="0 0 395.52 133.16436808344767" height="133.16436808344767" width="395.52"><g><svg viewBox="0 0 397.4975999999999 133.83018992386488" height="133.16436808344767" width="395.52"><g><rect width="397.4975999999999" height="4.099041959221594" x="0" y="56.183958826139744" fill="#4b91f1" opacity="1" stroke-width="0" stroke="transparent" fill-opacity="1" class="rect-r$-0" data-fill-palette-color="secondary" rx="1%" id="r$-0" data-palette-color="#4b91f1"></rect></g><g transform="matrix(1,0,0,1,0.9887999999999693,0)"><svg viewBox="0 0 395.52 45.453482493098925" height="45.453482493098925" width="395.52"><g id="textblocktransform"><svg viewBox="0 0 395.52 45.453482493098925" height="45.453482493098925" width="395.52" id="textblock"><g><svg viewBox="0 0 395.52 45.453482493098925" height="45.453482493098925" width="395.52"><g transform="matrix(1,0,0,1,0,0)"><svg width="395.52" viewBox="2.5 -35.9 344.12 39.55" height="45.453482493098925" data-palette-color="#77d4fc"><path d="M15.7-18.6Q15.7-18.4 15.75-18.18 15.8-17.95 15.85-17.75L15.85-17.75Q16.25-17.7 17.05-17.7L17.05-17.7Q20.55-17.7 24.25-19.2L24.25-19.2Q25.3-19.6 26-19.6L26-19.6Q27.4-19.6 28.3-18.3L28.3-18.3Q28.75-17.6 28.75-17.1L28.75-17.1Q28.75-16.5 28.1-15.85L28.1-15.85Q26.1-14 23.85-13.75L23.85-13.75Q21.85-13.5 17.85-12.9L17.85-12.9 14.35-12.4Q13.55-10.65 13.55-9L13.55-9Q13.55-6.6 15.23-5.03 16.9-3.45 19.8-3.35L19.8-3.35Q22.75-3.3 27.35-3.75L27.35-3.75 28.1-3.8Q29.35-3.8 30.18-3.23 31-2.65 31.75-1.2L31.75-1.2Q31.2 0 30.2 0.43 29.2 0.85 27.6 1.05L27.6 1.05Q25.95 1.25 23.85 1.25L23.85 1.25Q19.3 1.25 15.65-0.2L15.65-0.2Q9.2-2.7 7.4-8.85L7.4-8.85Q7.15-9.7 7.15-10.68 7.15-11.65 7.15-11.85L7.15-11.85Q7.15-13.55 5.5-14.35L5.5-14.35Q4.15-15.1 3.43-15.8 2.7-16.5 2.5-17.9L2.5-17.9 8.15-18.25 10.7-25.6Q10.8-25.95 10.93-26.48 11.05-27 11.2-27.3L11.2-27.3Q11.65-28.3 11.65-28.95L11.65-28.95Q11.65-29.95 10.7-30.7L10.7-30.7Q10.35-30.95 10.13-31.63 9.9-32.3 9.7-32.7L9.7-32.7 10.8-33.05Q11.6-33.25 11.95-33.4L11.95-33.4Q12.15-33.5 12.8-33.77 13.45-34.05 13.55-34.4L13.55-34.4Q13.9-35.25 14.43-35.55 14.95-35.85 15.7-35.85L15.7-35.85Q16.2-35.85 17.2-35.75L17.2-35.75Q17.5-35.75 17.82-35.63 18.15-35.5 18.35-35.3L18.35-35.3Q19.5-34.1 20.9-33.7 22.3-33.3 24.2-33.3L24.2-33.3 26.35-33.3 30.55-33.3Q34.8-33.3 36.9-33.2L36.9-33.2Q38-33.15 39.7-32.25L39.7-32.25Q40-32.1 40.18-31.68 40.35-31.25 40.35-30.85L40.35-30.85Q40.35-30.65 40-30.38 39.65-30.1 39.35-30L39.35-30Q35.95-29.1 34.2-28.95L34.2-28.95Q31.5-28.7 26.1-28.3L26.1-28.3Q24.85-28.25 22.1-28.05L22.1-28.05Q21.9-28.05 21.4-28.18 20.9-28.3 20.65-28.3L20.65-28.3Q18.8-28.3 18.3-26.75L18.3-26.75Q16.95-22.75 15.75-18.8L15.75-18.8 15.7-18.6ZM49.6-18.85Q49.6-18.55 49.5-18.07 49.4-17.6 49.45-17.45L49.45-17.45Q52.9-18.2 55.3-18.2L55.3-18.2Q59.05-18.2 60.95-14.6L60.95-14.6Q62.5-11.55 62.5-7.85L62.5-7.85Q62.5-6.9 62.3-5.1L62.3-5.1Q62.15-3.9 61.35-3.18 60.55-2.45 59.45-2.45L59.45-2.45Q58.3-2.45 57.82-2.88 57.35-3.3 57.27-3.85 57.2-4.4 57.2-5.6L57.2-5.6 57.15-6.65Q57.05-9.65 56.75-11.85L56.75-11.85Q56.6-12.75 56.07-13.13 55.55-13.5 54.7-13.5L54.7-13.5Q53.9-13.5 52.8-13.25L52.8-13.25Q51.1-12.8 50.52-12.55 49.95-12.3 48.85-11.5L48.85-11.5Q48.5-11.25 48.35-10.5 48.2-9.75 48.2-9.65L48.2-9.65Q47.55-6.45 46.8-2L46.8-2Q46.75-1.8 46.6-1.05 46.45-0.3 46.02 0.03 45.6 0.35 44.8 0.25L44.8 0.25Q41.65-0.15 41.6-2.4L41.6-2.4Q41.55-5.3 42.05-9.25L42.05-9.25Q42.4-12.1 42.7-13.85L42.7-13.85Q42.8-14.65 42.97-15.8 43.15-16.95 43.3-18.45L43.3-18.45Q43.45-19.6 43.6-20.15 43.75-20.7 44.3-21.08 44.85-21.45 46-21.45L46-21.45Q47.45-21.45 48.4-20.8 49.35-20.15 49.6-18.95L49.6-18.95 49.6-18.85ZM82.6-5.1Q81.1-3.4 79.55-2.43 78-1.45 76.1-1.45L76.1-1.45Q75.7-1.45 75-1.55L75-1.55 74-1.5Q67.7-1.45 64.8-7.5L64.8-7.5Q64.15-8.9 64.15-10.85L64.15-10.85Q64.15-12.55 64.65-14.1 65.15-15.65 66.05-16.65L66.05-16.65 67-17.8Q67.7-18.7 68.1-19.05L68.1-19.05Q69.85-20.75 72.75-20.75L72.75-20.75Q74.25-20.75 75.7-20.25 77.15-19.75 78.25-18.9L78.25-18.9Q78.45-18.75 78.65-18.28 78.85-17.8 78.85-17.5L78.85-17.5Q78.85-17.1 78.25-16.63 77.65-16.15 77.15-16.2L77.15-16.2Q73.75-16.6 71.7-14.58 69.65-12.55 69.65-9.05L69.65-9.05Q69.65-6.75 70.62-5.8 71.6-4.85 73.85-4.85L73.85-4.85Q75.25-4.85 76.5-5.43 77.75-6 79.4-7.05L79.4-7.05 80.35-7.65Q80.85-7.9 81.67-7.98 82.5-8.05 82.95-8.1L82.95-8.1Q82.9-7.65 82.92-7.23 82.95-6.8 82.95-6.55L82.95-6.55Q82.95-5.45 82.6-5.1L82.6-5.1ZM93.09-26.7Q93.14-21.85 93.37-18.73 93.59-15.6 94.44-12.1L94.44-12.1Q96.54-12.85 98.29-12.85L98.29-12.85Q101.24-12.85 103.39-11.1 105.54-9.35 106.29-6.75L106.29-6.75Q106.89-4.85 106.89-1.65L106.89-1.65 106.84 2.25Q106.84 2.6 106.44 3.05 106.04 3.5 105.64 3.6L105.64 3.6Q105.49 3.65 105.19 3.65L105.19 3.65Q104.04 3.65 102.79 2.53 101.54 1.4 101.49 0.3L101.49 0.3 101.39-2.3Q101.39-3.2 101.29-4.9L101.29-4.9Q101.19-6.65 100.89-7.4L100.89-7.4Q100.59-8.25 100.14-8.7 99.69-9.15 99.14-9.15L99.14-9.15Q98.74-9.15 98.27-8.8 97.79-8.45 97.44-7.85L97.44-7.85Q96.39-6.2 94.69-1.35L94.69-1.35Q94.14 0.4 92.74 0.4L92.74 0.4Q92.59 0.4 92.09 0.3L92.09 0.3Q91.79 0.2 90.94-0.03 90.09-0.25 89.62-0.75 89.14-1.25 89.14-2.2L89.14-2.2Q89.14-11.65 87.99-17.85L87.99-17.85Q87.44-20.95 87.44-25L87.44-25 87.44-28.35 87.44-30.1Q87.44-30.8 88.19-31.3 88.94-31.8 89.89-31.8L89.89-31.8Q90.69-31.8 91.24-31.45L91.24-31.45Q92.24-30.85 92.67-29.95 93.09-29.05 93.09-27.7L93.09-27.7 93.09-26.7ZM127.09-2.55Q126.64-2.75 126.19-2.75L126.19-2.75Q125.74-2.75 125.42-2.53 125.09-2.3 124.69-1.85L124.69-1.85Q124.09-1.25 123.44-0.85L123.44-0.85Q122.84-0.5 121.24-0.2L121.24-0.2Q120.54-0.1 120.09-0.1L120.09-0.1Q117.99-0.1 115.72-1.03 113.44-1.95 112.49-3.25L112.49-3.25Q111.49-4.65 111.54-6.25L111.54-6.25Q111.59-8.65 113.54-11.05L113.54-11.05Q115.44-13.35 117.02-14.3 118.59-15.25 121.34-15.5L121.34-15.5Q121.94-15.5 123.07-15.7 124.19-15.9 124.19-16.25L124.19-16.25Q124.19-16.95 123.57-17.53 122.94-18.1 121.04-18.1L121.04-18.1Q120.34-18.1 118.94-18L118.94-18Q117.54-17.9 116.99-17.9L116.99-17.9Q115.29-17.9 114.54-18.45L114.54-18.45Q114.34-18.55 114.34-19.4L114.34-19.4Q114.34-20.9 115.39-21.3L115.39-21.3Q117.54-22.1 119.84-22.15L119.84-22.15Q122.74-22.15 125.22-20.88 127.69-19.6 128.84-17.7L128.84-17.7Q129.99-15.8 130.34-12.45L130.34-12.45Q130.74-8.7 130.74-2.9L130.74-2.9Q130.74-1.3 130.29-1.05L130.29-1.05Q129.89-0.8 129.54-0.8L129.54-0.8Q129.09-0.8 128.72-1.07 128.34-1.35 127.89-1.85L127.89-1.85Q127.44-2.4 127.09-2.55L127.09-2.55ZM119.19-3.15Q121.54-3.85 123.79-5.4L123.79-5.4Q124.29-5.75 124.69-6.3 125.09-6.85 125.19-7L125.19-7Q125.29-7.15 125.37-7.88 125.44-8.6 125.39-9.05L125.39-9.05Q125.34-9.2 125.22-9.85 125.09-10.5 124.84-11L124.84-11Q124.59-11.4 124.04-11.75 123.49-12.1 123.04-12.05L123.04-12.05Q122.09-12 120.99-11.35 119.89-10.7 118.94-9.6L118.94-9.6Q117.99-8.45 117.47-7.28 116.94-6.1 116.94-5.1L116.94-5.1Q117.04-3.75 117.69-3.3L117.69-3.3Q118.04-3.05 118.54-3.05L118.54-3.05Q118.94-3.05 119.19-3.15L119.19-3.15ZM144.04-18.85Q144.04-18.55 143.94-18.07 143.84-17.6 143.89-17.45L143.89-17.45Q147.34-18.2 149.74-18.2L149.74-18.2Q153.49-18.2 155.39-14.6L155.39-14.6Q156.94-11.55 156.94-7.85L156.94-7.85Q156.94-6.9 156.74-5.1L156.74-5.1Q156.59-3.9 155.79-3.18 154.99-2.45 153.89-2.45L153.89-2.45Q152.74-2.45 152.26-2.88 151.79-3.3 151.71-3.85 151.64-4.4 151.64-5.6L151.64-5.6 151.59-6.65Q151.49-9.65 151.19-11.85L151.19-11.85Q151.04-12.75 150.51-13.13 149.99-13.5 149.14-13.5L149.14-13.5Q148.34-13.5 147.24-13.25L147.24-13.25Q145.54-12.8 144.96-12.55 144.39-12.3 143.29-11.5L143.29-11.5Q142.94-11.25 142.79-10.5 142.64-9.75 142.64-9.65L142.64-9.65Q141.99-6.45 141.24-2L141.24-2Q141.19-1.8 141.04-1.05 140.89-0.3 140.46 0.03 140.04 0.35 139.24 0.25L139.24 0.25Q136.09-0.15 136.04-2.4L136.04-2.4Q135.99-5.3 136.49-9.25L136.49-9.25Q136.84-12.1 137.14-13.85L137.14-13.85Q137.24-14.65 137.41-15.8 137.59-16.95 137.74-18.45L137.74-18.45Q137.89-19.6 138.04-20.15 138.19-20.7 138.74-21.08 139.29-21.45 140.44-21.45L140.44-21.45Q141.89-21.45 142.84-20.8 143.79-20.15 144.04-18.95L144.04-18.95 144.04-18.85ZM159.09-18.65Q158.74-19.05 158.61-19.5 158.49-19.95 158.39-20.75L158.39-20.75Q158.84-21.8 160.04-21.8L160.04-21.8Q160.64-21.7 160.89-21.7L160.89-21.7Q161.89-21.7 162.14-22.3 162.39-22.9 162.39-23.7 162.39-24.5 162.39-24.95L162.39-24.95 162.54-27.95Q162.59-28.95 162.66-30.43 162.74-31.9 162.84-33.85L162.84-33.85Q162.89-34.9 163.36-35.4 163.84-35.9 164.69-35.9L164.69-35.9Q165.29-35.9 165.64-35.8L165.64-35.8Q167.69-35.35 168.39-34.5 169.09-33.65 169.34-31.95L169.34-31.95Q169.39-31.6 169.24-30.5L169.24-30.5 168.34-22.7Q168.29-22.4 168.19-21.98 168.09-21.55 168.09-21.35L168.09-21.35Q168.09-20.9 168.59-20.75 169.09-20.6 170.44-20.65L170.44-20.65Q172.74-21.15 173.94-21.3L173.94-21.3Q174.19-21.35 174.74-21.35L174.74-21.35Q175.34-21.35 175.54-21.2L175.54-21.2Q175.74-21.1 175.86-20.63 175.99-20.15 175.99-19.55L175.99-19.55Q175.99-19 175.86-18.55 175.74-18.1 175.54-18.05L175.54-18.05Q174.19-17.65 172.34-17.4L172.34-17.4Q170.14-17 169.09-16.7L169.09-16.7Q168.54-16.55 167.99-15.95 167.44-15.35 167.39-14.85L167.39-14.85Q167.29-12.4 167.24-9.85L167.24-9.85Q167.19-7.9 167.39-5.95L167.39-5.95Q167.54-4.3 168.04-3.58 168.54-2.85 169.54-2.85L169.54-2.85Q170.34-2.85 171.84-3.4L171.84-3.4Q172.64-3.75 173.24-3.75L173.24-3.75Q174.19-3.75 174.59-2.7L174.59-2.7Q174.74-2.35 174.74-2L174.74-2Q174.74-1.35 174.26-0.95 173.79-0.55 172.99-0.25L172.99-0.25Q171.49 0.3 169.94 0.35L169.94 0.35Q167.84 0.35 165.99-0.68 164.14-1.7 163.06-3.55 161.99-5.4 162.14-7.8L162.14-7.8Q162.19-8.75 162.19-10.8L162.19-10.8Q162.19-14.05 161.94-17.4L161.94-17.4Q161.89-17.7 161.59-17.82 161.29-17.95 160.59-18.1L160.59-18.1Q159.44-18.3 159.09-18.65L159.09-18.65ZM187.98-7.8Q187.48-7.5 186.53-7.5L186.53-7.5Q186.18-7.5 185.68-7.55 185.18-7.6 184.83-7.55L184.83-7.55Q185.23-5.9 186.73-4.88 188.23-3.85 190.08-3.85L190.08-3.85Q191.68-3.85 192.93-4.55L192.93-4.55Q194.78-5.5 196.13-6.8L196.13-6.8Q197.08-7.75 197.93-7.75L197.93-7.75Q198.48-7.75 198.88-7.2L198.88-7.2Q199.28-6.55 199.28-5.6L199.28-5.6Q199.28-4.6 198.88-4.05L198.88-4.05Q197.58-2.05 195.51-1.3 193.43-0.55 190.68-0.55L190.68-0.55Q187.83-0.55 185.18-1.8 182.53-3.05 180.66-5.23 178.78-7.4 178.18-10.05L178.18-10.05Q177.78-11.6 177.78-13.1L177.78-13.1Q177.78-15.45 179.11-16.9 180.43-18.35 183.38-19.65L183.38-19.65Q186.08-20.8 188.38-20.8L188.38-20.8Q190.03-20.8 191.58-20.3L191.58-20.3Q196.38-18.8 196.38-16.2L196.38-16.2Q196.38-14.55 194.43-12.2L194.43-12.2Q193.48-11.1 192.18-10.25 190.88-9.4 189.66-8.72 188.43-8.05 187.98-7.8L187.98-7.8ZM190.08-17.05Q190.03-17.3 189.71-17.48 189.38-17.65 189.33-17.7L189.33-17.7Q187.98-17.8 186.58-16.93 185.18-16.05 184.26-14.7 183.33-13.35 183.33-12.1L183.33-12.1 183.38-11.7Q183.43-11.5 183.91-11.2 184.38-10.9 184.48-11L184.48-11Q188.03-13.65 189.83-15.25L189.83-15.25Q190.13-15.55 190.13-16.35L190.13-16.35Q190.13-16.85 190.08-17.05L190.08-17.05ZM221.28-5.85Q221.38-5 222.03-3.65L222.03-3.65Q222.13-3.4 222.26-3.1 222.38-2.8 222.53-2.4L222.53-2.4Q220.83-1.45 219.83-1.45L219.83-1.45Q219.08-1.45 218.43-1.93 217.78-2.4 216.98-3.45L216.98-3.45Q216.38-4.15 215.98-4.15L215.98-4.15Q215.58-4.15 215.13-3.5L215.13-3.5Q214.13-2 212.66-1.25 211.18-0.5 209.53-0.5L209.53-0.5Q207.68-0.5 205.96-1.38 204.23-2.25 203.28-3.75L203.28-3.75Q202.28-5.3 202.28-8.35L202.28-8.35Q202.28-10.55 202.88-12.8 203.48-15.05 204.58-16.5L204.58-16.5Q205.78-18.15 207.43-19.13 209.08-20.1 211.08-20.1L211.08-20.1Q211.73-20.1 212.08-20.05L212.08-20.05Q212.23-20 212.53-20L212.53-20Q213.68-20 213.68-21.1L213.68-21.1 213.63-21.5Q212.93-27.25 212.38-29.95L212.38-29.95Q212.33-30.2 212.23-30.75 212.13-31.3 212.13-31.65L212.13-31.65Q212.13-32.35 212.43-32.88 212.73-33.4 213.48-33.75L213.48-33.75Q213.78-33.9 214.18-33.9L214.18-33.9Q215.23-33.9 216.38-33.23 217.53-32.55 217.73-31.7L217.73-31.7Q218.48-28.6 219.13-23.65L219.13-23.65 220.03-16.05Q220.83-9.25 221.28-5.85L221.28-5.85ZM207.93-12.1Q207.08-9.65 207.08-7.6L207.08-7.6Q207.08-4.75 209.08-3.4L209.08-3.4Q209.88-3.85 210.36-4.42 210.83-5 211.48-6.1L211.48-6.1 212.03-7.05Q213.18-8.7 213.56-10.75 213.93-12.8 214.03-15.95L214.03-15.95Q214.08-16.4 213.86-16.98 213.63-17.55 213.38-17.6L213.38-17.6Q212.98-17.7 212.03-17.38 211.08-17.05 210.83-16.7L210.83-16.7Q209.68-15.35 209.01-14.35 208.33-13.35 207.93-12.1L207.93-12.1ZM243.03-25.15Q244.98-28.4 249.08-30.85L249.08-30.85Q252.33-32.8 256.63-32.8L256.63-32.8Q259.68-32.8 262.53-31.78 265.38-30.75 267.23-28.9L267.23-28.9Q267.88-28.25 268.63-27.65L268.63-27.65Q269.78-26.65 269.98-26.4L269.98-26.4Q272.48-23.75 272.48-20.55L272.48-20.55Q272.48-18.05 270.88-15.45L270.88-15.45Q268.78-12 266.53-9.4 264.28-6.8 261.48-4.95L261.48-4.95Q256.73-1.8 252.38-1.8L252.38-1.8Q251.08-1.8 249.78-2.1L249.78-2.1Q245.43-3.05 242.73-6.18 240.03-9.3 240.03-13.3L240.03-13.3Q240.03-16.35 241.73-19.4L241.73-19.4Q241.83-19.65 242.15-19.9 242.48-20.15 242.68-20.3L242.68-20.3 243.83-19.75 244.93-19.2Q246.48-18.35 246.95-17.8 247.43-17.25 247.43-16.25L247.43-16.25Q247.43-15.55 247.28-14.35L247.28-14.35Q247.23-13.9 247.23-13.05L247.23-13.05Q247.23-11.2 247.68-8.6L247.68-8.6Q247.78-7.85 248.3-7.45 248.83-7.05 249.63-7.05L249.63-7.05Q250.03-7.05 250.28-7.1L250.28-7.1Q252.63-7.55 254.3-8.15 255.98-8.75 257.33-9.95L257.33-9.95Q259.83-12.1 261.68-14.1 263.53-16.1 264.93-18.4L264.93-18.4Q265.88-20 265.88-21.5L265.88-21.5Q265.88-22.75 265.33-23.95 264.78-25.15 263.73-26.65L263.73-26.65Q261.98-29.05 259.18-29.05L259.18-29.05Q258.18-29.05 257.13-28.75L257.13-28.75Q256.78-28.65 253.93-27.7L253.93-27.7Q253.63-27.6 253.3-27.5 252.98-27.4 252.63-27.3L252.63-27.3 246.93-25.65Q245.83-25.3 243.53-24.7L243.53-24.7 243.03-25.15ZM291.72-2.55Q291.27-2.75 290.82-2.75L290.82-2.75Q290.37-2.75 290.05-2.53 289.72-2.3 289.32-1.85L289.32-1.85Q288.72-1.25 288.07-0.85L288.07-0.85Q287.47-0.5 285.87-0.2L285.87-0.2Q285.17-0.1 284.72-0.1L284.72-0.1Q282.62-0.1 280.35-1.03 278.07-1.95 277.12-3.25L277.12-3.25Q276.12-4.65 276.17-6.25L276.17-6.25Q276.22-8.65 278.17-11.05L278.17-11.05Q280.07-13.35 281.65-14.3 283.22-15.25 285.97-15.5L285.97-15.5Q286.57-15.5 287.7-15.7 288.82-15.9 288.82-16.25L288.82-16.25Q288.82-16.95 288.2-17.53 287.57-18.1 285.67-18.1L285.67-18.1Q284.97-18.1 283.57-18L283.57-18Q282.17-17.9 281.62-17.9L281.62-17.9Q279.92-17.9 279.17-18.45L279.17-18.45Q278.97-18.55 278.97-19.4L278.97-19.4Q278.97-20.9 280.02-21.3L280.02-21.3Q282.17-22.1 284.47-22.15L284.47-22.15Q287.37-22.15 289.85-20.88 292.32-19.6 293.47-17.7L293.47-17.7Q294.62-15.8 294.97-12.45L294.97-12.45Q295.37-8.7 295.37-2.9L295.37-2.9Q295.37-1.3 294.92-1.05L294.92-1.05Q294.52-0.8 294.17-0.8L294.17-0.8Q293.72-0.8 293.35-1.07 292.97-1.35 292.52-1.85L292.52-1.85Q292.07-2.4 291.72-2.55L291.72-2.55ZM283.82-3.15Q286.17-3.85 288.42-5.4L288.42-5.4Q288.92-5.75 289.32-6.3 289.72-6.85 289.82-7L289.82-7Q289.92-7.15 290-7.88 290.07-8.6 290.02-9.05L290.02-9.05Q289.97-9.2 289.85-9.85 289.72-10.5 289.47-11L289.47-11Q289.22-11.4 288.67-11.75 288.12-12.1 287.67-12.05L287.67-12.05Q286.72-12 285.62-11.35 284.52-10.7 283.57-9.6L283.57-9.6Q282.62-8.45 282.1-7.28 281.57-6.1 281.57-5.1L281.57-5.1Q281.67-3.75 282.32-3.3L282.32-3.3Q282.67-3.05 283.17-3.05L283.17-3.05Q283.57-3.05 283.82-3.15L283.82-3.15ZM305.42 1.1Q301.22 1.1 300.07-2.5L300.07-2.5Q300.47-2.5 301.15-2.48 301.82-2.45 302.27-2.35L302.27-2.35Q302.97-2.25 303.27-2.25L303.27-2.25Q305.52-2.25 307.02-4.25L307.02-4.25Q308.07-5.7 308.07-7.2L308.07-7.2Q308.07-8.2 307.57-9.15L307.57-9.15Q306.47-11.1 304.87-13.45L304.87-13.45Q303.82-15 302.97-16.4L302.97-16.4Q301.97-18 301.97-19.95L301.97-19.95Q301.97-21.75 303-23.13 304.02-24.5 306.02-24.85L306.02-24.85 307.62-25.15Q310.22-25.65 311.52-25.65L311.52-25.65Q313.67-25.65 315.32-24.65L315.32-24.65Q315.67-24.4 316.05-23.78 316.42-23.15 316.62-22.8L316.62-22.8Q316.27-22.65 315.65-22.33 315.02-22 314.57-21.95L314.57-21.95Q313.87-21.85 312.47-21.85L312.47-21.85Q311.12-21.85 310.42-21.8L310.42-21.8Q308.82-21.65 307.9-20.73 306.97-19.8 306.97-18.5L306.97-18.5Q306.97-17.5 307.57-16.45L307.57-16.45Q308.92-14.2 311.32-11.3L311.32-11.3Q313.12-9.05 313.12-6.65L313.12-6.65Q313.12-5.35 312.52-3.9L312.52-3.9Q310.47 1.1 305.42 1.1L305.42 1.1ZM324.37-23.3Q324.27-23 323.64-22.65 323.02-22.3 322.62-22L322.62-22 321.22-22.75Q319.17-23.85 318.42-24.5L318.42-24.5Q318.02-24.8 318.02-25.25L318.02-25.25Q318.02-25.55 318.24-25.78 318.47-26 318.92-26L318.92-26Q320.87-26 323.67-25L323.67-25Q323.97-24.95 324.22-24.33 324.47-23.7 324.37-23.3L324.37-23.3ZM319.87-14Q320.02-14.65 320.07-14.95 320.12-15.25 320.12-15.6L320.12-15.6Q320.12-16.3 320.54-16.7 320.97-17.1 322.17-17.1L322.17-17.1Q323.57-17.1 324.64-16.23 325.72-15.35 325.97-13.95L325.97-13.95Q326.12-13.25 326.17-12.4 326.22-11.55 326.22-11.3L326.22-11.3 326.92-2.75Q327.07-1.4 326.54-0.68 326.02 0.05 324.57 0.05L324.57 0.05Q323.32 0.05 322.44-0.65 321.57-1.35 321.37-2.45L321.37-2.45 320.07-13.05 319.87-14ZM335.42 1.1Q331.22 1.1 330.06-2.5L330.06-2.5Q330.47-2.5 331.14-2.48 331.81-2.45 332.27-2.35L332.27-2.35Q332.97-2.25 333.27-2.25L333.27-2.25Q335.52-2.25 337.02-4.25L337.02-4.25Q338.06-5.7 338.06-7.2L338.06-7.2Q338.06-8.2 337.56-9.15L337.56-9.15Q336.47-11.1 334.87-13.45L334.87-13.45Q333.81-15 332.97-16.4L332.97-16.4Q331.97-18 331.97-19.95L331.97-19.95Q331.97-21.75 332.99-23.13 334.02-24.5 336.02-24.85L336.02-24.85 337.62-25.15Q340.22-25.65 341.52-25.65L341.52-25.65Q343.67-25.65 345.31-24.65L345.31-24.65Q345.67-24.4 346.04-23.78 346.42-23.15 346.62-22.8L346.62-22.8Q346.27-22.65 345.64-22.33 345.02-22 344.56-21.95L344.56-21.95Q343.87-21.85 342.47-21.85L342.47-21.85Q341.12-21.85 340.42-21.8L340.42-21.8Q338.81-21.65 337.89-20.73 336.97-19.8 336.97-18.5L336.97-18.5Q336.97-17.5 337.56-16.45L337.56-16.45Q338.92-14.2 341.31-11.3L341.31-11.3Q343.12-9.05 343.12-6.65L343.12-6.65Q343.12-5.35 342.52-3.9L342.52-3.9Q340.47 1.1 335.42 1.1L335.42 1.1Z" opacity="1" transform="matrix(1,0,0,1,0,0)" fill="#77d4fc" class="wordmark-text-0" data-fill-palette-color="primary" id="text-0"></path></svg></g></svg></g></svg></g></svg></g><g transform="matrix(1,0,0,1,160.17993763022108,71.01347711840216)"><svg viewBox="0 0 77.13772473955775 62.81671280546272" height="62.81671280546272" width="77.13772473955775"><g><svg xmlns="http://www.w3.org/2000/svg" xmlns:xlink="http://www.w3.org/1999/xlink" version="1.1" x="8" y="0" viewBox="8.318789558203376 7.455857864376267 80.33095271985039 82.5370327058813" style="enable-background:new 0 0 100 100;" xml:space="preserve" height="62.81671280546272" width="61.137724739557754" class="icon-icon-0" data-fill-palette-color="accent" id="icon-0"><g fill="#4b91f1" data-fill-palette-color="accent"><path d="M47.13 79.2c-2.1-6.36-1.99-12.62 0.69-18.81 0.61-1.4 1.1-2.87 1.58-4.32 1.32-3.99 1.04-8.05 0.43-12.1-0.38-2.52-1.05-4.97-2.47-7.15-0.37-0.57-0.58-1.25-0.87-1.88 1.01 0.38 1.78 0.95 2.62 1.39 0.62 0.33 1.33 0.71 1.98 0.7 1.55-0.03 2.8 0.45 3.86 1.56 0.67 0.71 1.48 0.89 2.34 0.36 0.96-0.6 1.95-0.71 3.03-0.39 0.36 0.11 0.76 0.1 1.14 0.1 1.95 0.02 3.81 0.37 5.5 1.42 0.67 0.42 1.38 0.51 2.2 0.37 0.73-0.12 1.52-0.04 2.26 0.11 0.79 0.16 1.53 0.55 2.32 0.75 0.64 0.16 1.32 0.26 1.98 0.21 0.7-0.05 1-0.62 0.69-1.25-0.25-0.5-0.62-0.98-1.04-1.36-1.52-1.39-3.15-2.66-4.63-4.1-1.75-1.7-3.8-2.9-5.96-3.96-1.36-0.67-2.78-0.98-4.3-1.01-2.77-0.05-5.43 0.51-8.05 1.35-1.24 0.4-2.5 0.66-3.92 0.44 0.55-0.54 1.15-0.92 1.43-1.46 0.43-0.81 1.05-1.22 1.87-1.42 0.56-0.14 1.12-0.24 1.69-0.32 1.05-0.16 1.84-0.59 1.86-1.8 0.02-0.71 0.48-1.01 1.07-1.18 0.78-0.23 1.57-0.44 2.37-0.61 0.88-0.18 1.48-0.66 1.73-1.53 0.51-1.82 1.83-2.6 3.58-2.84 0.81-0.11 1.62-0.22 2.42-0.37 1.36-0.26 2.42-0.91 2.84-2.32 0.29-0.97 0.97-1.52 1.92-1.76 0.97-0.25 1.95-0.51 2.93-0.71 1.32-0.27 2.41-0.89 3.27-1.94 1.05-1.28 2.37-2.24 3.82-3.01C82.2 9.91 83.13 9.52 84 9.01c0.32-0.19 0.72-0.6 0.73-0.92 0-0.62-0.6-0.62-1.08-0.63-0.24-0.01-0.48 0-0.72 0.01-2.49 0.03-4.99 0.14-7.48 0.08-4.34-0.11-8.18 1.22-11.75 3.63-2.18 1.47-4.48 2.77-6.77 4.07-1.69 0.96-3.15 2.14-4.32 3.72-0.79 1.07-1.73 2.06-2.74 2.92-2.02 1.71-3.55 3.75-4.6 6.17-0.19 0.43-0.4 0.84-0.67 1.39-0.25-0.31-0.46-0.5-0.59-0.73-0.62-1.18-1.53-2.03-2.68-2.72-1.05-0.63-2.11-1.38-2.88-2.31-1.06-1.28-2.31-1.74-3.88-1.78-0.58-0.01-1.26-0.19-1.71-0.54-1-0.77-2.03-1-3.23-0.7-1.55 0.38-3.11 0.46-4.7 0.1-1.93-0.43-3.8-0.15-5.64 0.57-3.95 1.56-7.13 4.29-10.44 6.82-0.32 0.24-0.55 0.82-0.53 1.23 0.03 0.6 0.63 0.82 1.17 0.86 1.1 0.08 2.2 0.15 3.3 0.12 1.38-0.03 2.76-0.17 4.11-0.26 0.6 1.77 0.9 1.92 2.62 1.38 1.19-0.37 2.37-0.76 3.57-1.11 0.66-0.19 1.34-0.32 2.1-0.5 0 0.46-0.01 0.74 0 1.03 0.03 1.35 0.65 1.81 1.96 1.35 0.72-0.25 1.39-0.64 2.09-0.96 0.65-0.3 1.29-0.64 1.96-0.9 0.64-0.24 1.31-0.37 1.93 0.07 0.76 0.54 1.5 0.47 2.3 0.1 1.1-0.51 2.2-0.45 3.35-0.03 0.89 0.33 1.84 0.48 2.77 0.69 0.44 0.1 0.99-0.02 1.2 0.57-2.01 0.44-2.34 0.56-3.38 1.64-0.63 0.65-1.33 1.04-2.19 1.27-2.37 0.63-4.39 1.87-6.14 3.59-0.58 0.57-1.2 1.11-1.87 1.56-1.72 1.15-3.01 2.66-4.02 4.43-0.55 0.96-1.07 1.93-1.7 2.84-1.64 2.36-2.54 5.04-3.44 7.72-0.09 0.28 0.14 0.67 0.22 1.01 0.32-0.12 0.82-0.16 0.93-0.39 0.82-1.61 2.3-2.27 3.88-2.75 1.7-0.51 3.02-1.42 3.83-3.02 0.61-1.2 1.57-2.03 2.82-2.55 1.12-0.47 2.1-1.13 2.91-2.06 0.26-0.3 0.69-0.63 1.06-0.66 2.12-0.15 3.31-1.48 4.39-3.11 1.2-1.82 2.51-3.57 3.78-5.36 0.04 0.08 0.12 0.19 0.15 0.31 0.09 0.42 0.17 0.85 0.24 1.27 0.73 4.4 0.08 8.74-1.03 12.96C42 55 40.59 59.44 38.57 63.66c-0.54 1.12-0.96 2.3-1.46 3.44-1.67 3.8-2.84 7.73-3.19 11.89-0.05 0.59-0.15 1.16 0.39 1.58 1.29 1.01 2.61 1.95 4.33 2.1 2.7 0.22 5.25-0.26 7.67-1.47C47.46 80.61 47.55 80.47 47.13 79.2zM45.9 79.73c-2.76 2.03-7.3 2.26-9.85 0.53-0.58-0.39-0.85-0.79-0.77-1.52 0.33-2.97 0.86-5.87 2.05-8.64 1.11-2.6 2.28-5.18 3.25-7.83 1.42-3.92 2.9-7.83 3.95-11.85 1.19-4.55 1.73-9.23 0.92-13.98 1.93 2.49 2.79 5.35 3.2 8.37 0.53 3.93 0.7 7.84-0.73 11.64-0.59 1.57-1.14 3.16-1.76 4.72-2.23 5.61-2.33 11.29-0.64 17.05 0.13 0.46 0.27 0.92 0.4 1.38C45.93 79.63 45.91 79.68 45.9 79.73z" fill="#4b91f1" data-fill-palette-color="accent"></path><path d="M88.55 60.44c-0.32-0.97-1.24-1.11-2.13-1.16-4.97-0.3-9.93-0.47-14.91 0.04-5.26 0.54-10.42 1.54-15.52 2.89-1.15 0.31-2.28 0.73-3.38 1.2-0.6 0.26-1.18 0.66-1.64 1.13-0.76 0.79-0.65 1.73 0.26 2.33 0.55 0.36 1.19 0.63 1.82 0.82 1.1 0.33 2.24 0.53 3.34 0.85 0.66 0.19 1.29 0.52 2.24 0.91-0.7 0.44-1.09 0.68-1.48 0.93-0.52 0.34-1.11 0.61-1.54 1.04-0.34 0.34-0.67 0.88-0.66 1.32 0.01 0.67 0.69 0.85 1.27 0.94 0.9 0.14 1.81 0.2 2.7 0.39 0.67 0.14 1.44 0.16 1.95 1.08-0.79 0.41-1.53 0.82-2.29 1.18-1.91 0.89-3.85 1.71-5.74 2.65-0.91 0.45-1.81 1.12-1.6 2.31 0.2 1.13 1.28 1.32 2.2 1.57 0.72 0.2 1.46 0.35 2.19 0.52 0 0.12 0.01 0.24 0.01 0.36-0.48 0.19-0.95 0.43-1.45 0.56-1.57 0.44-3.14 0.85-4.72 1.24-1.53 0.38-3.09 0.68-4.6 1.13-1.23 0.36-1.81 1.11-1.71 1.85 0.1 0.75 0.84 1.28 2.13 1.35 1.72 0.09 3.45 0.17 5.17 0.09 3.59-0.17 7.18-0.45 10.76-0.69 6.53-0.43 12.9-1.8 19.2-3.5 0.96-0.26 1.91-0.65 2.79-1.12 1.9-1.02 1.92-2.29 0.13-3.43-0.44-0.28-0.94-0.5-1.36-0.8-1.01-0.73-2.01-1.46-2.98-2.25-0.36-0.29-0.63-0.72-0.9-1.11-0.33-0.47-0.23-0.92 0.24-1.25 0.43-0.3 0.89-0.56 1.33-0.84 0.6-0.39 1.25-0.73 1.79-1.19 0.93-0.8 0.79-1.6-0.33-2.09-0.92-0.4-1.9-0.66-2.83-1.05-0.6-0.25-1.27-0.45-1.63-1.32 0.7-0.42 1.37-0.85 2.07-1.24 2.47-1.37 4.95-2.72 7.41-4.11 0.54-0.3 1.04-0.69 1.5-1.11C88.38 62.23 88.87 61.41 88.55 60.44zM85.98 62.56c-2.06 1.22-4.14 2.41-6.23 3.59-1 0.56-2.07 1.01-3.04 1.62-1.82 1.15-1.78 2.56 0.13 3.6 1.08 0.59 2.26 0.99 3.65 1.58-0.72 0.44-1.29 0.81-1.88 1.15-2.45 1.44-2.7 2.93-0.64 4.86 1.18 1.1 2.59 1.96 3.9 2.91 0.45 0.33 0.94 0.6 1.52 0.98-0.8 0.87-1.7 1.21-2.6 1.45-2.31 0.63-4.64 1.2-6.97 1.76-5.99 1.44-12.11 1.99-18.24 2.33-3.06 0.17-6.13 0.21-9.2 0.27-0.54 0.01-1.08-0.12-1.62-0.19-0.01-0.12-0.02-0.23-0.03-0.35 0.62-0.2 1.22-0.45 1.85-0.61 2.42-0.59 4.86-1.12 7.27-1.75 0.92-0.24 1.83-0.6 2.67-1.05 0.4-0.22 0.79-0.74 0.88-1.18 0.12-0.64-0.45-1.03-1.01-1.23-0.63-0.23-1.29-0.37-1.93-0.55-0.63-0.18-1.25-0.37-2.22-0.66 0.75-0.56 1.19-0.99 1.71-1.25 1.6-0.77 3.24-1.44 4.85-2.19 0.87-0.4 1.77-0.78 2.53-1.34 1.22-0.89 1.13-2.18-0.23-2.85-0.88-0.44-1.91-0.59-2.88-0.83-0.44-0.11-0.91-0.14-1.71-0.26 0.66-0.43 1.03-0.69 1.42-0.93 0.36-0.23 0.76-0.41 1.1-0.68 0.89-0.7 0.97-1.59 0.09-2.3-0.62-0.49-1.39-0.85-2.15-1.1-1.09-0.36-2.24-0.54-3.34-0.85-0.58-0.16-1.13-0.45-1.72-0.68 0.12-0.81 0.7-1.02 1.2-1.22 1.11-0.45 2.23-0.93 3.39-1.18 4.12-0.9 8.25-1.75 12.39-2.54 1.64-0.31 3.32-0.43 4.98-0.64 0.05-0.01 0.1-0.01 0.14-0.01 4.12 0.11 8.23 0.21 12.34 0.33 0.31 0.01 0.61 0.19 0.9 0.29C87.22 61.79 86.58 62.2 85.98 62.56z" fill="#4b91f1" data-fill-palette-color="accent"></path></g></svg></g></svg></g><g><rect width="83.64681763022111" height="4.099041959221594" y="75.11251907762376" x="237.31766236977882" fill="#4b91f1" data-fill-palette-color="secondary"></rect><rect width="83.64681763022111" height="4.099041959221594" y="75.11251907762376" x="76.53311999999997" fill="#4b91f1" data-fill-palette-color="secondary"></rect></g></svg></g><defs></defs></svg><rect width="395.52" height="133.16436808344767" fill="none" stroke="none" visibility="hidden"></rect></g></svg></g></svg>