<svg xmlns="http://www.w3.org/2000/svg" version="1.1" xmlns:xlink="http://www.w3.org/1999/xlink" xmlns:svgjs="http://svgjs.dev/svgjs" width="128" height="128" viewBox="0 0 128 128"><g transform="matrix(0.8046875,0,0,0.8046875,12.460654511547745,11.960139391447363)"><svg viewBox="0 0 93 95" data-background-color="#ffffff" preserveAspectRatio="xMidYMid meet" height="130" width="128" xmlns="http://www.w3.org/2000/svg" xmlns:xlink="http://www.w3.org/1999/xlink"><g id="tight-bounds" transform="matrix(1,0,0,1,0.03552553811708492,-0.24049999999999727)"><svg viewBox="0 0 92.92894892376584 95.481" height="95.481" width="92.92894892376584"><g><svg viewBox="0 0 92.92894892376584 95.481" height="95.481" width="92.92894892376584"><g><svg viewBox="0 0 92.92894892376584 95.481" height="95.481" width="92.92894892376584"><g id="textblocktransform"><svg viewBox="0 0 92.92894892376584 95.481" height="95.481" width="92.92894892376584" id="textblock"><g><svg viewBox="0 0 92.92894892376584 95.481" height="95.481" width="92.92894892376584"><g><svg viewBox="0 0 92.92894892376584 95.481" height="95.481" width="92.92894892376584"><g><svg xmlns="http://www.w3.org/2000/svg" xmlns:xlink="http://www.w3.org/1999/xlink" version="1.1" x="0" y="0" viewBox="8.318789558203376 7.455857864376267 80.33095271985039 82.5370327058813" style="enable-background:new 0 0 100 100;" xml:space="preserve" height="95.481" width="92.92894892376584" class="icon-icon-0" data-fill-palette-color="accent" id="icon-0"><g fill="#4b91f1" data-fill-palette-color="accent"><path d="M47.13 79.2c-2.1-6.36-1.99-12.62 0.69-18.81 0.61-1.4 1.1-2.87 1.58-4.32 1.32-3.99 1.04-8.05 0.43-12.1-0.38-2.52-1.05-4.97-2.47-7.15-0.37-0.57-0.58-1.25-0.87-1.88 1.01 0.38 1.78 0.95 2.62 1.39 0.62 0.33 1.33 0.71 1.98 0.7 1.55-0.03 2.8 0.45 3.86 1.56 0.67 0.71 1.48 0.89 2.34 0.36 0.96-0.6 1.95-0.71 3.03-0.39 0.36 0.11 0.76 0.1 1.14 0.1 1.95 0.02 3.81 0.37 5.5 1.42 0.67 0.42 1.38 0.51 2.2 0.37 0.73-0.12 1.52-0.04 2.26 0.11 0.79 0.16 1.53 0.55 2.32 0.75 0.64 0.16 1.32 0.26 1.98 0.21 0.7-0.05 1-0.62 0.69-1.25-0.25-0.5-0.62-0.98-1.04-1.36-1.52-1.39-3.15-2.66-4.63-4.1-1.75-1.7-3.8-2.9-5.96-3.96-1.36-0.67-2.78-0.98-4.3-1.01-2.77-0.05-5.43 0.51-8.05 1.35-1.24 0.4-2.5 0.66-3.92 0.44 0.55-0.54 1.15-0.92 1.43-1.46 0.43-0.81 1.05-1.22 1.87-1.42 0.56-0.14 1.12-0.24 1.69-0.32 1.05-0.16 1.84-0.59 1.86-1.8 0.02-0.71 0.48-1.01 1.07-1.18 0.78-0.23 1.57-0.44 2.37-0.61 0.88-0.18 1.48-0.66 1.73-1.53 0.51-1.82 1.83-2.6 3.58-2.84 0.81-0.11 1.62-0.22 2.42-0.37 1.36-0.26 2.42-0.91 2.84-2.32 0.29-0.97 0.97-1.52 1.92-1.76 0.97-0.25 1.95-0.51 2.93-0.71 1.32-0.27 2.41-0.89 3.27-1.94 1.05-1.28 2.37-2.24 3.82-3.01C82.2 9.91 83.13 9.52 84 9.01c0.32-0.19 0.72-0.6 0.73-0.92 0-0.62-0.6-0.62-1.08-0.63-0.24-0.01-0.48 0-0.72 0.01-2.49 0.03-4.99 0.14-7.48 0.08-4.34-0.11-8.18 1.22-11.75 3.63-2.18 1.47-4.48 2.77-6.77 4.07-1.69 0.96-3.15 2.14-4.32 3.72-0.79 1.07-1.73 2.06-2.74 2.92-2.02 1.71-3.55 3.75-4.6 6.17-0.19 0.43-0.4 0.84-0.67 1.39-0.25-0.31-0.46-0.5-0.59-0.73-0.62-1.18-1.53-2.03-2.68-2.72-1.05-0.63-2.11-1.38-2.88-2.31-1.06-1.28-2.31-1.74-3.88-1.78-0.58-0.01-1.26-0.19-1.71-0.54-1-0.77-2.03-1-3.23-0.7-1.55 0.38-3.11 0.46-4.7 0.1-1.93-0.43-3.8-0.15-5.64 0.57-3.95 1.56-7.13 4.29-10.44 6.82-0.32 0.24-0.55 0.82-0.53 1.23 0.03 0.6 0.63 0.82 1.17 0.86 1.1 0.08 2.2 0.15 3.3 0.12 1.38-0.03 2.76-0.17 4.11-0.26 0.6 1.77 0.9 1.92 2.62 1.38 1.19-0.37 2.37-0.76 3.57-1.11 0.66-0.19 1.34-0.32 2.1-0.5 0 0.46-0.01 0.74 0 1.03 0.03 1.35 0.65 1.81 1.96 1.35 0.72-0.25 1.39-0.64 2.09-0.96 0.65-0.3 1.29-0.64 1.96-0.9 0.64-0.24 1.31-0.37 1.93 0.07 0.76 0.54 1.5 0.47 2.3 0.1 1.1-0.51 2.2-0.45 3.35-0.03 0.89 0.33 1.84 0.48 2.77 0.69 0.44 0.1 0.99-0.02 1.2 0.57-2.01 0.44-2.34 0.56-3.38 1.64-0.63 0.65-1.33 1.04-2.19 1.27-2.37 0.63-4.39 1.87-6.14 3.59-0.58 0.57-1.2 1.11-1.87 1.56-1.72 1.15-3.01 2.66-4.02 4.43-0.55 0.96-1.07 1.93-1.7 2.84-1.64 2.36-2.54 5.04-3.44 7.72-0.09 0.28 0.14 0.67 0.22 1.01 0.32-0.12 0.82-0.16 0.93-0.39 0.82-1.61 2.3-2.27 3.88-2.75 1.7-0.51 3.02-1.42 3.83-3.02 0.61-1.2 1.57-2.03 2.82-2.55 1.12-0.47 2.1-1.13 2.91-2.06 0.26-0.3 0.69-0.63 1.06-0.66 2.12-0.15 3.31-1.48 4.39-3.11 1.2-1.82 2.51-3.57 3.78-5.36 0.04 0.08 0.12 0.19 0.15 0.31 0.09 0.42 0.17 0.85 0.24 1.27 0.73 4.4 0.08 8.74-1.03 12.96C42 55 40.59 59.44 38.57 63.66c-0.54 1.12-0.96 2.3-1.46 3.44-1.67 3.8-2.84 7.73-3.19 11.89-0.05 0.59-0.15 1.16 0.39 1.58 1.29 1.01 2.61 1.95 4.33 2.1 2.7 0.22 5.25-0.26 7.67-1.47C47.46 80.61 47.55 80.47 47.13 79.2zM45.9 79.73c-2.76 2.03-7.3 2.26-9.85 0.53-0.58-0.39-0.85-0.79-0.77-1.52 0.33-2.97 0.86-5.87 2.05-8.64 1.11-2.6 2.28-5.18 3.25-7.83 1.42-3.92 2.9-7.83 3.95-11.85 1.19-4.55 1.73-9.23 0.92-13.98 1.93 2.49 2.79 5.35 3.2 8.37 0.53 3.93 0.7 7.84-0.73 11.64-0.59 1.57-1.14 3.16-1.76 4.72-2.23 5.61-2.33 11.29-0.64 17.05 0.13 0.46 0.27 0.92 0.4 1.38C45.93 79.63 45.91 79.68 45.9 79.73z" fill="#4b91f1" data-fill-palette-color="accent"></path><path d="M88.55 60.44c-0.32-0.97-1.24-1.11-2.13-1.16-4.97-0.3-9.93-0.47-14.91 0.04-5.26 0.54-10.42 1.54-15.52 2.89-1.15 0.31-2.28 0.73-3.38 1.2-0.6 0.26-1.18 0.66-1.64 1.13-0.76 0.79-0.65 1.73 0.26 2.33 0.55 0.36 1.19 0.63 1.82 0.82 1.1 0.33 2.24 0.53 3.34 0.85 0.66 0.19 1.29 0.52 2.24 0.91-0.7 0.44-1.09 0.68-1.48 0.93-0.52 0.34-1.11 0.61-1.54 1.04-0.34 0.34-0.67 0.88-0.66 1.32 0.01 0.67 0.69 0.85 1.27 0.94 0.9 0.14 1.81 0.2 2.7 0.39 0.67 0.14 1.44 0.16 1.95 1.08-0.79 0.41-1.53 0.82-2.29 1.18-1.91 0.89-3.85 1.71-5.74 2.65-0.91 0.45-1.81 1.12-1.6 2.31 0.2 1.13 1.28 1.32 2.2 1.57 0.72 0.2 1.46 0.35 2.19 0.52 0 0.12 0.01 0.24 0.01 0.36-0.48 0.19-0.95 0.43-1.45 0.56-1.57 0.44-3.14 0.85-4.72 1.24-1.53 0.38-3.09 0.68-4.6 1.13-1.23 0.36-1.81 1.11-1.71 1.85 0.1 0.75 0.84 1.28 2.13 1.35 1.72 0.09 3.45 0.17 5.17 0.09 3.59-0.17 7.18-0.45 10.76-0.69 6.53-0.43 12.9-1.8 19.2-3.5 0.96-0.26 1.91-0.65 2.79-1.12 1.9-1.02 1.92-2.29 0.13-3.43-0.44-0.28-0.94-0.5-1.36-0.8-1.01-0.73-2.01-1.46-2.98-2.25-0.36-0.29-0.63-0.72-0.9-1.11-0.33-0.47-0.23-0.92 0.24-1.25 0.43-0.3 0.89-0.56 1.33-0.84 0.6-0.39 1.25-0.73 1.79-1.19 0.93-0.8 0.79-1.6-0.33-2.09-0.92-0.4-1.9-0.66-2.83-1.05-0.6-0.25-1.27-0.45-1.63-1.32 0.7-0.42 1.37-0.85 2.07-1.24 2.47-1.37 4.95-2.72 7.41-4.11 0.54-0.3 1.04-0.69 1.5-1.11C88.38 62.23 88.87 61.41 88.55 60.44zM85.98 62.56c-2.06 1.22-4.14 2.41-6.23 3.59-1 0.56-2.07 1.01-3.04 1.62-1.82 1.15-1.78 2.56 0.13 3.6 1.08 0.59 2.26 0.99 3.65 1.58-0.72 0.44-1.29 0.81-1.88 1.15-2.45 1.44-2.7 2.93-0.64 4.86 1.18 1.1 2.59 1.96 3.9 2.91 0.45 0.33 0.94 0.6 1.52 0.98-0.8 0.87-1.7 1.21-2.6 1.45-2.31 0.63-4.64 1.2-6.97 1.76-5.99 1.44-12.11 1.99-18.24 2.33-3.06 0.17-6.13 0.21-9.2 0.27-0.54 0.01-1.08-0.12-1.62-0.19-0.01-0.12-0.02-0.23-0.03-0.35 0.62-0.2 1.22-0.45 1.85-0.61 2.42-0.59 4.86-1.12 7.27-1.75 0.92-0.24 1.83-0.6 2.67-1.05 0.4-0.22 0.79-0.74 0.88-1.18 0.12-0.64-0.45-1.03-1.01-1.23-0.63-0.23-1.29-0.37-1.93-0.55-0.63-0.18-1.25-0.37-2.22-0.66 0.75-0.56 1.19-0.99 1.71-1.25 1.6-0.77 3.24-1.44 4.85-2.19 0.87-0.4 1.77-0.78 2.53-1.34 1.22-0.89 1.13-2.18-0.23-2.85-0.88-0.44-1.91-0.59-2.88-0.83-0.44-0.11-0.91-0.14-1.71-0.26 0.66-0.43 1.03-0.69 1.42-0.93 0.36-0.23 0.76-0.41 1.1-0.68 0.89-0.7 0.97-1.59 0.09-2.3-0.62-0.49-1.39-0.85-2.15-1.1-1.09-0.36-2.24-0.54-3.34-0.85-0.58-0.16-1.13-0.45-1.72-0.68 0.12-0.81 0.7-1.02 1.2-1.22 1.11-0.45 2.23-0.93 3.39-1.18 4.12-0.9 8.25-1.75 12.39-2.54 1.64-0.31 3.32-0.43 4.98-0.64 0.05-0.01 0.1-0.01 0.14-0.01 4.12 0.11 8.23 0.21 12.34 0.33 0.31 0.01 0.61 0.19 0.9 0.29C87.22 61.79 86.58 62.2 85.98 62.56z" fill="#4b91f1" data-fill-palette-color="accent"></path></g></svg></g></svg></g></svg></g></svg></g></svg></g><g></g></svg></g><defs></defs></svg><rect width="92.92894892376584" height="95.481" fill="none" stroke="none" visibility="hidden"></rect></g></svg></g></svg>